<?xml version="1.0" encoding="UTF-8" standalone="no"?>
<!-- Created with Inkscape (http://www.inkscape.org/) -->

<svg
   width="228.29201mm"
   height="92.488998mm"
   viewBox="0 0 228.29201 92.488998"
   version="1.1"
   id="svg1"
   xml:space="preserve"
   inkscape:version="1.3.2 (091e20e, 2023-11-25, custom)"
   sodipodi:docname="Saman Insurance logo.svg"
   xmlns:inkscape="http://www.inkscape.org/namespaces/inkscape"
   xmlns:sodipodi="http://sodipodi.sourceforge.net/DTD/sodipodi-0.dtd"
   xmlns="http://www.w3.org/2000/svg"
   xmlns:svg="http://www.w3.org/2000/svg"><sodipodi:namedview
     id="namedview1"
     pagecolor="#ffffff"
     bordercolor="#666666"
     borderopacity="1.0"
     inkscape:showpageshadow="2"
     inkscape:pageopacity="0.0"
     inkscape:pagecheckerboard="0"
     inkscape:deskcolor="#d1d1d1"
     inkscape:document-units="mm"
     showguides="true"
     inkscape:zoom="0.5"
     inkscape:cx="377"
     inkscape:cy="278"
     inkscape:window-width="1366"
     inkscape:window-height="706"
     inkscape:window-x="-8"
     inkscape:window-y="-8"
     inkscape:window-maximized="1"
     inkscape:current-layer="layer1" /><defs
     id="defs1">
   
   
   
   
   
   
   
   
   
   
   
   
   
   
   
   
   
   
   
   
   
   
   
   
   
  </defs><g
     inkscape:label="Layer 1"
     inkscape:groupmode="layer"
     id="layer1"><g
       id="g2"
       transform="matrix(3.5093086,0,0,3.5093086,-309.65307,-245.65507)"><g
         id="g1"><circle
           style="fill:#ff0000;fill-opacity:1;stroke:none;stroke-width:7.04392;stroke-linecap:square;stroke-linejoin:round;stroke-miterlimit:1;stroke-dasharray:none;stroke-opacity:1;paint-order:stroke fill markers"
           id="path41-1"
           cx="144.2684"
           cy="79.024033"
           r="3.3155787" /><path
           id="rect1-4-7"
           style="color:#000000;fill:#14317a;fill-opacity:1;stroke-width:1.00002;stroke-linecap:round;stroke-linejoin:round;stroke-miterlimit:1;-inkscape-stroke:none;paint-order:stroke fill markers"
           d="m 138.24177,70.000989 v 2.99627 h 6.02819 v 0.0021 h 1.50331 c 2.53113,0 4.52128,1.990679 4.52128,4.521795 v 1.502787 6.026132 h 2.99627 v -6.026132 -1.502787 c 0,-4.139824 -3.3777,-7.520132 -7.51755,-7.520132 h -1.50331 z" /><path
           id="rect22-6-2"
           style="fill:#14317a;fill-opacity:1;stroke:none;stroke-width:4.51615;stroke-linecap:round;stroke-linejoin:round;stroke-miterlimit:1;stroke-dasharray:none;stroke-opacity:1;paint-order:stroke fill markers"
           d="M 135.2455,72.997259 V 88.04631 h 2.99627 12.05278 V 85.05004 H 138.24177 V 72.997259 Z" /></g><path
         id="path9"
         d="m 94.453553,77.322917 c 0.467355,-1.079643 0.794593,-1.881074 1.452676,-2.868496 0.03729,-0.07441 0.111706,-0.186115 0.204977,-0.316627 0.698543,0.349518 1.189172,0.637659 1.713383,1.266565 0.186312,0.20492 0.297825,0.447012 0.316701,0.707722 0.01865,0.09322 0.03712,0.204919 0.03712,0.372604 0,0.409653 -0.148825,0.819552 -0.409532,1.210649 -0.558708,0.782441 -0.968609,1.191969 -1.210634,1.247947 -0.177182,0 -2.073394,-1.367598 -2.104672,-1.620364 z m 1.587955,9.941126 c -1.005657,0.521794 -2.104672,0.782318 -3.315323,0.782318 -1.452676,0 -2.551621,-0.447013 -3.333742,-1.359468 -0.76365,-0.894209 -1.154869,-2.048882 -1.154869,-3.483129 0,-0.707723 0.09324,-1.471546 0.279337,-2.309406 0.186294,-0.819802 0.391218,-1.508844 0.596195,-2.048882 0.223413,-0.540286 0.48412,-1.117624 0.782068,-1.713638 0.39129,-0.782257 0.819626,-1.564759 1.28524,-2.384188 0.186312,-0.316626 0.279407,-0.484247 0.316507,-0.521544 0.03729,-0.03717 0.111883,-0.03717 0.186313,-0.01849 0.05594,0.01849 0.05594,0.149 0.01865,0.372417 -0.01865,0.242216 -0.07441,0.428331 -0.111707,0.596016 l -1.136239,2.477214 c -0.297825,0.763637 -0.502925,1.285056 -0.595826,1.545953 -0.149001,0.521608 -0.242218,1.024348 -0.242218,1.564573 0,1.359653 0.465631,2.328273 1.378334,2.924287 0.689044,0.46563 1.564382,0.689229 2.626033,0.689229 0.763632,0 1.43424,-0.05598 2.011578,-0.186486 0.130353,-0.03712 0.260707,-0.07441 0.409707,-0.111707 0.447019,-0.130318 0.91265,-0.335306 1.415628,-0.614635 0.633068,-0.353798 1.210476,-0.800748 1.713577,-1.359652 0.353555,-0.372603 0.763456,-0.894024 1.210469,-1.583253 0.27952,-0.465442 0.48432,-0.893837 0.63312,-1.303737 0.13053,-0.391035 0.2051,-0.893962 0.2051,-1.489979 l 0.0558,-2.496079 c 0,-0.409528 0.0559,-0.782131 0.149,-1.136054 0.0723,-0.260524 0.17855,-0.588754 0.31837,-0.967005 h 1.15436 c -0.0878,0.896816 -0.066,1.87915 -0.22479,2.73656 -0.0744,0.502927 -0.20497,1.173165 -0.39127,2.030201 -0.11188,0.484124 -0.20492,0.856541 -0.26072,1.117622 -0.0559,0.260711 -0.13035,0.558719 -0.26071,0.875344 -0.24222,0.819429 -0.59595,1.639045 -1.06177,2.45841 -0.46569,0.819616 -0.987097,1.601932 -1.582941,2.347077 -0.931244,1.098757 -1.899677,1.936988 -2.942716,2.495893 -0.03729,0.03692 -0.09324,0.05578 -0.13053,0.07422 z m 36.189702,-1.701412 c 0.0457,0.182764 0.0304,0.380857 -0.0457,0.59403 -0.061,0.2285 -0.16764,0.472332 -0.30465,0.746447 -0.13721,0.274238 -0.33529,0.517883 -0.57913,0.746385 -0.15234,0.152537 -0.27423,0.228687 -0.36559,0.228687 -0.061,0 -0.18295,-0.09148 -0.38098,-0.259097 -0.19809,-0.16749 -0.38073,-0.319852 -0.53321,-0.441737 -0.16765,-0.121945 -0.30471,-0.243829 -0.41133,-0.350447 -0.12191,-0.106622 -0.16765,-0.213172 -0.16765,-0.274053 0.10661,-0.258973 0.19808,-0.441737 0.24382,-0.578949 0.1981,-0.411266 0.33512,-0.700834 0.4266,-0.898927 0.16764,-0.274239 0.33512,-0.563622 0.50275,-0.868332 0.0457,-0.06101 0.1066,-0.152361 0.18295,-0.259096 0.0456,0.06101 0.1066,0.106746 0.16747,0.137215 0.0457,0.04574 0.12173,0.09128 0.22869,0.152167 0.38066,0.319976 0.65492,0.563807 0.77686,0.731429 0.13722,0.167682 0.22869,0.365589 0.25909,0.594278 z m -3.43862,0 c 0.0457,0.182764 0.0304,0.380857 -0.0457,0.59403 -0.0609,0.2285 -0.16765,0.472332 -0.30465,0.746447 -0.13721,0.274238 -0.33531,0.517883 -0.57913,0.746385 -0.15217,0.152537 -0.27406,0.228687 -0.36554,0.228687 -0.0609,0 -0.18282,-0.09148 -0.38085,-0.259097 -0.1981,-0.16749 -0.38086,-0.319852 -0.53322,-0.441737 -0.16782,-0.121945 -0.3049,-0.243829 -0.41145,-0.350447 -0.12191,-0.106622 -0.16747,-0.213172 -0.16747,-0.274053 0.1066,-0.258973 0.1979,-0.441737 0.24366,-0.578949 0.19806,-0.411266 0.33529,-0.700834 0.42659,-0.898927 0.16765,-0.274239 0.33511,-0.563622 0.50272,-0.868332 0.0457,-0.06101 0.10678,-0.152361 0.18295,-0.259096 0.0457,0.06101 0.10661,0.106746 0.16747,0.137215 0.0457,0.04574 0.12191,0.09128 0.22868,0.152167 0.38085,0.319976 0.65512,0.563807 0.77705,0.731429 0.13704,0.167682 0.2285,0.365589 0.25891,0.594278 z m -2.69816,0 c 0.0457,0.182764 0.0306,0.380857 -0.0457,0.59403 -0.0609,0.2285 -0.16729,0.472332 -0.3047,0.746447 -0.13704,0.274238 -0.33512,0.517883 -0.57896,0.746385 -0.15234,0.152537 -0.27404,0.228687 -0.36551,0.228687 -0.0609,0 -0.18276,-0.09148 -0.38086,-0.259097 -0.1981,-0.16749 -0.38105,-0.319852 -0.53322,-0.441737 -0.16765,-0.121945 -0.3049,-0.243829 -0.41145,-0.350447 -0.12191,-0.106622 -0.16747,-0.213172 -0.16747,-0.274053 0.10661,-0.258973 0.19808,-0.441737 0.24382,-0.578949 0.1981,-0.411266 0.33512,-0.700834 0.42659,-0.898927 0.16748,-0.274239 0.33512,-0.563622 0.50275,-0.868332 0.0456,-0.06101 0.10661,-0.152361 0.18283,-0.259096 0.0457,0.06101 0.10661,0.106746 0.16747,0.137215 0.0457,0.04574 0.12191,0.09128 0.22852,0.152167 0.38086,0.319976 0.65514,0.563807 0.77704,0.731429 0.13703,0.167682 0.22849,0.365589 0.25896,0.594278 z m 0.58772,-7.788358 c 0.002,0.172766 0.0677,0.345359 0.19722,0.518069 0.044,0.04382 0.17556,0.175441 0.39475,0.35082 0.24116,0.175195 0.39458,0.284976 0.46035,0.372728 0.30682,0.284852 0.46018,0.482199 0.46018,0.657578 0,0.350634 -0.17521,0.767175 -0.52595,1.249561 -0.17556,0.219379 -0.30701,0.394758 -0.4166,0.526137 -0.0876,0.06577 -0.1534,0.109789 -0.24117,0.153592 -0.0876,0.04363 -0.24116,0.06578 -0.4384,0.06578 -0.15339,0 -0.39456,-0.06578 -0.74531,-0.153592 -0.35083,-0.08757 -0.57015,-0.131374 -0.67974,-0.131374 -0.39444,0 -0.72337,0.08745 -1.03038,0.284976 -0.15339,0.10942 -0.43838,0.394385 -0.83294,0.898741 -0.3728,0.504167 -0.72356,0.898739 -0.98669,1.205747 -0.96439,1.117931 -1.99476,1.6661 -3.09103,1.6661 -0.28499,0 -0.56995,-0.06578 -0.85493,-0.175388 -0.61376,-0.241224 -1.03036,-0.35082 -1.20575,-0.35082 -0.4822,0 -0.92058,0.06577 -1.29331,0.241223 -0.26903,0.104441 -0.53799,0.24979 -0.80696,0.429016 h -1.30174 c 0.032,-0.06081 0.0705,-0.123123 0.11364,-0.187853 0.50417,-0.679735 0.9647,-1.227716 1.38131,-1.622287 0.24098,-0.263193 0.54792,-0.548169 0.92053,-0.854989 0.5262,-0.482324 0.9647,-0.832959 1.31553,-1.052274 0.59173,-0.372604 1.20567,-0.570201 1.81944,-0.570201 0.32898,0 0.67962,0.06597 1.07437,0.219379 0.39439,0.153592 0.61358,0.219379 0.67937,0.219379 0.63572,0 1.18389,-0.131567 1.62228,-0.41654 0.43876,-0.285161 0.89892,-0.745578 1.42512,-1.403094 l 0.77382,-1.050413 c 0.17275,-0.305207 0.36802,-0.785979 0.56418,-1.156285 0.1096,-0.219194 0.24116,-0.504169 0.43838,-0.810988 0.46036,-0.723548 0.98655,-1.315468 1.60032,-1.797855 0.61395,-0.482198 1.16187,-0.723359 1.64427,-0.723359 l 0.35801,0.04748 v -0.0019 c 0.13158,0.02215 0.30695,0.08794 0.50417,0.153592 0.19734,0.08757 0.32891,0.131567 0.37273,0.131567 0.26301,0 0.46041,-0.08762 0.6356,-0.263006 0.17539,-0.175563 0.37273,-0.438571 0.59211,-0.789143 0.2192,-0.350945 0.37261,-0.526324 0.48221,-0.504355 0.19741,0.06577 0.21919,0.328789 0.044,0.832958 -0.15358,0.372788 -0.26319,0.635919 -0.32898,0.767547 -0.17539,0.350571 -0.35094,0.635547 -0.5262,0.876772 -0.67321,0.883782 -1.24564,1.343269 -1.71692,1.378642 l -3.2e-4,6.21e-4 c -0.0179,0.0012 -0.0359,0.0019 -0.0537,0.0019 l -0.005,1.25e-4 v -1.25e-4 c -0.19933,-0.0019 -0.3976,-0.079 -0.57721,-0.198838 -0.19735,-0.131743 -0.39457,-0.219315 -0.59192,-0.241347 -0.32879,-0.0656 -0.6796,0.06597 -1.05233,0.35082 -0.37261,0.306944 -0.57002,0.59192 -0.57002,0.855113 l -6.9e-4,3.1e-4 z m -22.58953,1.307586 -10e-4,0.0037 v 0.562409 c 0,0.739558 0.15164,1.308454 0.4549,1.687884 0.30365,0.398296 0.64493,0.587763 1.00536,0.587763 0.0756,-0.019 0.18965,-0.284481 0.36026,-0.75855 0.17064,-0.473945 0.30328,-0.853374 0.41729,-1.099811 0.32245,0.05696 0.5687,0.227447 0.72056,0.492874 0.15182,0.246684 0.24681,0.512111 0.2656,0.758734 0,0.872179 -0.18963,1.725553 -0.56889,2.541135 -0.51211,1.099997 -1.19482,1.65009 -2.06719,1.65009 -0.49312,0 -0.92932,-0.246623 -1.32763,-0.758735 -0.39829,-0.511926 -0.62573,-0.986183 -0.68289,-1.441262 -0.0378,-0.455141 -0.0566,-0.739558 -0.0566,-0.853374 0,-0.113817 0,-0.208643 0,-0.246623 v -0.417286 l 5.6e-4,-6.21e-4 c 0.009,-0.334808 0.14214,-1.547009 0.39878,-3.63778 0.24662,-2.162202 0.45508,-3.830909 0.62605,-4.968763 l 0.0199,-0.0684 h 1.07908 l -0.32159,2.344221 c -0.11381,0.872179 -0.20846,1.611924 -0.24644,2.256657 -0.057,0.625742 -0.0758,1.081008 -0.0758,1.36561 z m 3.78518,2.805196 v 0 c 0,-0.284294 0.11399,-1.519951 0.37931,-3.681782 0.24661,-2.162015 0.45544,-3.830909 0.62592,-4.968701 l 0.0201,-0.06845 h 1.0602 l -0.32171,2.344283 c -0.13264,0.872366 -0.20864,1.611862 -0.24649,2.256595 -0.057,0.625927 -0.0758,1.081006 -0.0758,1.365485 0,0.303284 0.0188,0.606877 0.0188,0.910345 0.019,0.303471 0.0758,0.663723 0.20865,1.099813 0.13282,0.341325 0.36024,0.644919 0.68271,0.872365 0.30348,0.227633 0.72057,0.341449 1.2328,0.341449 0.72056,0 1.27065,-0.189591 1.68794,-0.588072 0.56872,-0.511927 0.94815,-0.815209 1.13761,-0.872179 0.095,-0.03798 0.22781,-0.03798 0.43647,-0.019 0.18946,0 0.36024,0.019 0.51191,0.019 0.20865,0 0.36026,-0.03798 0.45509,-0.113817 0.28448,-0.189467 0.49311,-0.436088 0.62593,-0.777725 0.057,-0.151481 0.11364,-0.341076 0.17064,-0.511925 0.17064,0.019 0.34131,0.019 0.49311,0.019 0.20865,0 0.39811,-0.113818 0.53091,-0.379244 0.0758,-0.132799 0.17064,-0.379304 0.28442,-0.720755 0.11382,-0.341262 0.20865,-0.51205 0.28467,-0.51205 0.0948,0 0.13281,0.114011 0.13281,0.322461 0,0.777538 -0.22763,1.517221 -0.68273,2.256779 -0.45525,0.739558 -0.92939,1.118989 -1.42245,1.118989 -0.30347,0.436151 -0.47406,0.682774 -0.53109,0.739558 -0.30347,0.341448 -0.5877,0.512111 -0.83438,0.512111 -0.28442,-0.03798 -0.51206,-0.05696 -0.66373,-0.05696 -0.13282,0 -0.30348,0.03798 -0.51223,0.132992 -0.22746,0.09445 -0.66361,0.56871 -1.30834,1.403096 -0.64485,0.853498 -1.34661,1.270598 -2.08618,1.270598 -0.81551,0 -1.3844,-0.360439 -1.76371,-1.099999 -0.36006,-0.720008 -0.53074,-1.591318 -0.53111,-2.61424"
         style="fill:#14317a;fill-opacity:1;fill-rule:evenodd;stroke:none;stroke-width:0.620592" /><path
         id="path12"
         d="m 88.321501,96.145559 c -0.02178,-0.401604 -0.05011,-0.728811 -0.08393,-0.98168 0.517905,0.232507 0.987168,0.34882 1.409135,0.34882 0.168928,0 0.327267,-0.02568 0.473318,-0.0772 0.147325,-0.05136 0.255554,-0.123066 0.324576,-0.217452 0.07012,-0.09346 0.105359,-0.197584 0.105359,-0.313962 0,-0.08921 -0.01593,-0.169105 -0.05011,-0.240624 -0.04975,-0.09719 -0.133867,-0.198835 -0.251497,-0.304219 C 90.09819,94.214448 89.827816,93.975189 89.440892,93.642487 89.25585,93.481509 89.128729,93.366568 89.058271,93.297541 88.900144,93.147559 88.778477,93.01225 88.694704,92.892 c -0.08535,-0.120375 -0.146087,-0.239376 -0.182706,-0.358376 -0.03648,-0.118995 -0.05542,-0.246311 -0.05542,-0.381428 0,-0.24756 0.06906,-0.481252 0.208222,-0.699077 0.13794,-0.217824 0.346373,-0.388112 0.622236,-0.511235 0.275722,-0.123066 0.6233,-0.183967 1.043833,-0.183967 0.377361,0 0.803206,0.04604 1.275143,0.138117 0.01416,0.274485 0.04055,0.588259 0.07986,0.941139 -0.410971,-0.156853 -0.790971,-0.235315 -1.138602,-0.235315 -0.258368,0 -0.469263,0.05827 -0.634225,0.175852 -0.165033,0.117558 -0.247373,0.254118 -0.247373,0.411161 0,0.04198 0.0053,0.08639 0.01771,0.132434 0.01062,0.04592 0.02851,0.09069 0.05153,0.133867 0.02284,0.04466 0.06339,0.101517 0.121474,0.170345 0.05967,0.07046 0.144669,0.152851 0.258314,0.246124 0.113504,0.09334 0.209691,0.170345 0.289533,0.228444 l 0.489433,0.443771 c 0.124305,0.102703 0.235313,0.202706 0.332703,0.300096 0.09739,0.09882 0.181165,0.191961 0.250064,0.281228 0.0703,0.09064 0.124482,0.175852 0.163616,0.258366 0.04073,0.08108 0.0703,0.165033 0.08942,0.251621 0.02018,0.08495 0.02957,0.175656 0.02957,0.271609 0,0.221697 -0.05136,0.431339 -0.154055,0.62755 -0.102703,0.19746 -0.251622,0.35819 -0.443587,0.48556 -0.19333,0.127122 -0.404295,0.21514 -0.634296,0.263615 -0.229824,0.04854 -0.471884,0.07296 -0.728818,0.07296 -0.169106,0 -0.364931,-0.0147 -0.589691,-0.04317 -0.224512,-0.0298 -0.520544,-0.08521 -0.886909,-0.167724 z m 64.620559,-0.778908 c -0.0338,0.155418 -0.0825,0.433961 -0.14609,0.835754 -0.28522,0.06072 -0.52728,0.101446 -0.72187,0.123067 -0.19639,0.02017 -0.39368,0.03099 -0.59251,0.03099 -0.3462,0 -0.65715,-0.03379 -0.93175,-0.102703 -0.27306,-0.06902 -0.51386,-0.194774 -0.7207,-0.378741 -0.20559,-0.182406 -0.35839,-0.408352 -0.45565,-0.674839 -0.0988,-0.2663 -0.14749,-0.54628 -0.14749,-0.838253 0,-0.324581 0.0569,-0.639606 0.17051,-0.944012 0.11333,-0.305405 0.27306,-0.5544 0.4772,-0.747613 0.20559,-0.194774 0.43951,-0.331453 0.7005,-0.412537 0.26244,-0.07989 0.53547,-0.120446 0.82077,-0.120446 0.27056,0 0.52604,0.03386 0.76955,0.101321 0.2435,0.06778 0.44764,0.177221 0.61248,0.331454 0.16503,0.152798 0.29217,0.336826 0.38144,0.553026 0.088,0.21514 0.13245,0.454328 0.13245,0.719441 0,0.1245 -0.0142,0.251432 -0.0392,0.384051 l -2.90613,0.0044 c -0.005,0.09739 -0.009,0.175851 -0.009,0.23269 0,0.177097 0.0312,0.339451 0.0921,0.486623 0.0607,0.14768 0.14875,0.273235 0.26511,0.376056 0.1174,0.102755 0.25551,0.178532 0.41785,0.227195 0.16078,0.04873 0.31897,0.07315 0.47601,0.07315 0.1824,0 0.37998,-0.02036 0.59356,-0.05966 0.21226,-0.03916 0.46657,-0.105572 0.75999,-0.200085 z m -2.56404,-1.590303 1.85821,0.0044 c 0,-0.128555 -0.004,-0.223321 -0.0124,-0.28404 -0.009,-0.06216 -0.0257,-0.132434 -0.0525,-0.210889 -0.0285,-0.07846 -0.0664,-0.148742 -0.11367,-0.208393 -0.0473,-0.05934 -0.10288,-0.11069 -0.16645,-0.149982 -0.0636,-0.04053 -0.13794,-0.07033 -0.22044,-0.09195 -0.0837,-0.02155 -0.173,-0.03235 -0.26774,-0.03235 -0.11229,0 -0.22045,0.01753 -0.32459,0.05259 -0.10412,0.03379 -0.1999,0.08533 -0.28791,0.15154 -0.0866,0.0662 -0.15812,0.14187 -0.21232,0.224507 -0.0541,0.08239 -0.0947,0.162235 -0.12041,0.238004 -0.0269,0.07702 -0.0525,0.178345 -0.0798,0.306902 z m -1.84849,1.574186 c -0.0142,0.107997 -0.0338,0.229819 -0.0607,0.366373 -0.0273,0.137921 -0.0556,0.307028 -0.0854,0.509737 -0.37718,0.08663 -0.74924,0.129812 -1.11698,0.129812 -0.21357,0 -0.41934,-0.02018 -0.61675,-0.05946 -0.19872,-0.03916 -0.38268,-0.109627 -0.55303,-0.21233 -0.17034,-0.101446 -0.31908,-0.235315 -0.44889,-0.401603 -0.12997,-0.166291 -0.22594,-0.367936 -0.29091,-0.604502 -0.0648,-0.236562 -0.0974,-0.479875 -0.0974,-0.730121 0,-0.332703 0.0541,-0.653225 0.16115,-0.958817 0.10676,-0.30709 0.26348,-0.557086 0.47044,-0.750423 0.20558,-0.194837 0.43558,-0.327269 0.68846,-0.396296 0.25287,-0.07033 0.5341,-0.105571 0.84374,-0.105571 0.17177,0 0.34889,0.0094 0.53142,0.02973 0.18259,0.02036 0.39898,0.06216 0.64773,0.124501 l 0.0569,0.868174 c -0.39343,-0.135248 -0.73712,-0.202894 -1.03054,-0.202894 -0.17978,0 -0.35025,0.02973 -0.50959,0.09064 -0.15973,0.06092 -0.29774,0.156922 -0.4126,0.286726 -0.11493,0.129743 -0.19748,0.281167 -0.24601,0.452953 -0.0487,0.170469 -0.0732,0.346133 -0.0732,0.524666 0,0.250184 0.0394,0.466571 0.11634,0.650539 0.0784,0.182406 0.21233,0.324582 0.40305,0.424466 0.18929,0.100207 0.40566,0.150301 0.64898,0.150301 0.119,0 0.26242,-0.01505 0.43277,-0.04334 0.17034,-0.02973 0.35025,-0.07702 0.54091,-0.143235 z m -8.38286,0.90853 c 0.0621,-0.600252 0.11352,-1.273655 0.15548,-2.021642 0.0418,-0.749175 0.0648,-1.418517 0.0703,-2.010834 0.24343,0.0056 0.43684,0.0082 0.58289,0.0082 0.17176,0 0.35294,-0.0025 0.54627,-0.0082 l -0.042,0.678897 c 0.0811,-0.116373 0.15406,-0.208267 0.21502,-0.277294 0.0623,-0.0689 0.14201,-0.135125 0.23794,-0.201332 0.0961,-0.06621 0.1989,-0.119189 0.30846,-0.158287 0.10944,-0.0406 0.23126,-0.07172 0.36781,-0.096 0.13528,-0.02298 0.27711,-0.03524 0.42459,-0.03524 0.23519,0 0.4599,0.02973 0.67466,0.08926 0.21376,0.05946 0.38838,0.154232 0.51935,0.282791 0.13245,0.129813 0.21907,0.270359 0.26105,0.424403 0.042,0.153046 0.0636,0.315027 0.0636,0.487 0,0.07009 -0.004,0.183779 -0.0124,0.339261 l -0.0837,1.731043 c -0.0107,0.240686 -0.0177,0.49618 -0.0202,0.767978 -0.20845,-0.0049 -0.38547,-0.008 -0.53297,-0.008 -0.19995,0 -0.4016,0.0025 -0.60437,0.008 0.0202,-0.22982 0.046,-0.629987 0.0756,-1.20213 0.0312,-0.570702 0.046,-0.949319 0.046,-1.134538 0,-0.208202 -0.0324,-0.375929 -0.0986,-0.503052 -0.0662,-0.12712 -0.16787,-0.224507 -0.30578,-0.290787 -0.13917,-0.06621 -0.28792,-0.09857 -0.44889,-0.09857 -0.1583,0 -0.30546,0.02973 -0.44357,0.09045 -0.13652,0.06091 -0.25551,0.150176 -0.35557,0.266487 -0.10553,0.118993 -0.1866,0.264925 -0.24469,0.439336 -0.0609,0.185403 -0.10554,0.490996 -0.1353,0.916899 -0.0283,0.377494 -0.0501,0.881794 -0.0676,1.515905 -0.20288,-0.0049 -0.38547,-0.008 -0.54888,-0.008 -0.16646,0 -0.36794,0.0025 -0.60457,0.008 z m -4.26653,-3.156181 c 0.0378,-0.18784 0.0623,-0.319085 0.0717,-0.394859 0.009,-0.07576 0.0257,-0.189275 0.0501,-0.343509 0.35963,-0.08378 0.67608,-0.141995 0.95195,-0.175656 0.27466,-0.03398 0.53953,-0.05153 0.79646,-0.05153 0.29079,0 0.5587,0.03385 0.80059,0.101321 0.24343,0.0664 0.43415,0.174595 0.57207,0.321898 0.13652,0.148741 0.20559,0.361062 0.20559,0.638545 0,0.14998 -0.0203,0.532598 -0.0623,1.149342 -0.042,0.616619 -0.0662,1.253539 -0.0744,1.910637 -0.2015,-0.0049 -0.38529,-0.008 -0.55439,-0.008 -0.16096,0 -0.35025,0.0025 -0.56663,0.008 0.0352,-0.319086 0.0635,-0.68827 0.0839,-1.107615 l 0.0526,-0.985741 c -0.10128,0.06622 -0.17707,0.112248 -0.23107,0.139356 -0.0527,0.02568 -0.11226,0.0501 -0.17847,0.07296 -0.0662,0.02174 -0.18396,0.05684 -0.35025,0.102879 -0.16787,0.04604 -0.30154,0.08639 -0.40304,0.120375 -0.10005,0.03504 -0.19191,0.0744 -0.27323,0.117559 -0.0797,0.04322 -0.14875,0.09195 -0.20416,0.146121 -0.0555,0.05404 -0.0959,0.110884 -0.12164,0.170346 -0.0257,0.05948 -0.0379,0.124306 -0.0379,0.193338 0,0.110883 0.0324,0.206831 0.0974,0.286726 0.0648,0.08108 0.14732,0.136684 0.24476,0.169105 0.0986,0.03116 0.21513,0.04728 0.34756,0.04728 0.0852,0 0.17443,-0.0067 0.26918,-0.02036 0.0931,-0.01346 0.22026,-0.0473 0.3798,-0.101322 -0.0553,0.149982 -0.12022,0.374493 -0.19458,0.673403 -0.18791,0.03242 -0.33683,0.05278 -0.4491,0.06091 -0.11084,0.0082 -0.21368,0.01204 -0.3097,0.01204 -0.3327,0 -0.60701,-0.0446 -0.82089,-0.135124 -0.21496,-0.08921 -0.37311,-0.231381 -0.47456,-0.427404 -0.10129,-0.194837 -0.15265,-0.392048 -0.15265,-0.589509 0,-0.113698 0.0202,-0.225945 0.0593,-0.336639 0.0392,-0.111006 0.0974,-0.21245 0.17442,-0.304341 0.0772,-0.09334 0.17583,-0.182593 0.29767,-0.267923 0.12164,-0.08501 0.29732,-0.168911 0.52877,-0.248622 0.22982,-0.08108 0.53403,-0.162358 0.91278,-0.244747 0.0999,-0.02036 0.20419,-0.04604 0.31359,-0.07715 0.1082,-0.02981 0.19476,-0.05953 0.25961,-0.08802 0.065,-0.0296 0.12042,-0.06746 0.16911,-0.113505 0.0474,-0.04585 0.0825,-0.09458 0.10412,-0.144864 0.023,-0.04979 0.0338,-0.101269 0.0338,-0.153859 0,-0.105572 -0.0338,-0.194774 -0.10146,-0.267924 -0.0676,-0.07295 -0.15407,-0.124305 -0.26243,-0.152796 -0.10677,-0.02855 -0.22577,-0.04179 -0.35556,-0.04179 -0.48271,0 -1.01554,0.113504 -1.59843,0.340634 z m -3.45771,3.156181 0.11367,-1.883713 0.0322,-1.094122 c 0.005,-0.224383 0.009,-0.450142 0.009,-0.677337 0,-0.04073 -0.002,-0.16622 -0.009,-0.377304 0.2463,0.0056 0.42745,0.0082 0.54382,0.0082 0.13528,0 0.3138,-0.0025 0.53542,-0.0082 l -0.0203,0.563957 c 0.10026,-0.141995 0.18658,-0.248809 0.2583,-0.319271 0.0717,-0.06885 0.15157,-0.129813 0.24079,-0.179719 0.0891,-0.0501 0.18792,-0.08802 0.29611,-0.114939 0.10961,-0.02568 0.22027,-0.0393 0.33521,-0.0393 0.10552,0 0.21514,0.01364 0.32595,0.04055 0,0.247561 0.0107,0.561334 0.0324,0.941326 -0.15672,-0.04866 -0.2973,-0.07308 -0.42459,-0.07308 -0.15406,0 -0.28916,0.02298 -0.40692,0.06885 -0.11898,0.04747 -0.22458,0.116497 -0.31785,0.211078 -0.0947,0.09334 -0.17176,0.209641 -0.23248,0.346196 -0.0515,0.112247 -0.088,0.255493 -0.11229,0.432776 -0.0203,0.137923 -0.0378,0.371808 -0.0527,0.704386 -0.0142,0.332703 -0.0231,0.659969 -0.0231,0.983304 0,0.122871 0.004,0.278543 0.0124,0.466383 -0.20026,-0.0049 -0.38411,-0.008 -0.55052,-0.008 -0.16361,0 -0.35826,0.0025 -0.58538,0.008 z m -0.98175,0 c -0.23125,-0.0049 -0.40973,-0.008 -0.53279,-0.008 -0.15547,0 -0.33288,0.0025 -0.53016,0.008 l 0.007,-0.658535 c -0.0744,0.112248 -0.13937,0.201521 -0.19479,0.268987 -0.0555,0.06783 -0.12838,0.134062 -0.21762,0.199021 -0.0893,0.06484 -0.18666,0.116196 -0.29205,0.154055 -0.10553,0.03935 -0.22713,0.07046 -0.36244,0.09613 -0.13652,0.02568 -0.27996,0.03774 -0.43421,0.03774 -0.29459,0 -0.55171,-0.04317 -0.77079,-0.128379 -0.21901,-0.08658 -0.39203,-0.217762 -0.5206,-0.392046 -0.12838,-0.174595 -0.19191,-0.424781 -0.19191,-0.750801 v -0.08371 l 0.0676,-1.02247 0.0636,-1.348053 c 0.004,-0.108386 0.004,-0.243499 0.004,-0.404415 0.25024,0.0056 0.445,0.0082 0.5868,0.0082 0.15034,0 0.33153,-0.0025 0.54385,-0.0082 l -0.13121,1.808065 c -0.009,0.140613 -0.0142,0.258365 -0.0189,0.354315 -0.004,0.09726 -0.005,0.16629 -0.005,0.208079 0,0.192153 0.0285,0.351882 0.0839,0.477567 0.0567,0.127192 0.15565,0.222946 0.29622,0.289163 0.13919,0.0664 0.28937,0.100256 0.45027,0.100256 0.1514,0 0.29611,-0.0298 0.43259,-0.08782 0.12307,-0.05297 0.22864,-0.127316 0.31647,-0.221885 0.088,-0.09601 0.16237,-0.224508 0.2219,-0.386736 0.0446,-0.11632 0.0784,-0.278544 0.1027,-0.484125 0.0177,-0.146122 0.0352,-0.397544 0.0513,-0.751861 0.0231,-0.428716 0.0394,-0.864116 0.0487,-1.305012 0.26243,0.0056 0.46257,0.0082 0.60051,0.0082 0.15689,0 0.3327,-0.0025 0.52873,-0.0082 -0.0312,0.378742 -0.0648,0.850497 -0.0986,1.417266 -0.035,0.567893 -0.0581,1.035901 -0.0717,1.403525 -0.0142,0.369369 -0.0245,0.772349 -0.0324,1.211685 z m -7.74449,-0.07277 -0.0894,-0.87636 c 0.25819,0.10681 0.47737,0.181157 0.65586,0.221698 0.1797,0.04179 0.3435,0.06216 0.49368,0.06216 0.14997,0 0.27709,-0.01753 0.37985,-0.05273 0.10288,-0.03648 0.17847,-0.08926 0.22857,-0.158162 0.0501,-0.07046 0.0758,-0.14343 0.0758,-0.220448 0,-0.03398 -0.002,-0.06477 -0.009,-0.0947 -0.007,-0.02837 -0.0191,-0.05934 -0.0366,-0.09052 -0.0159,-0.03116 -0.0364,-0.06072 -0.0581,-0.08921 -0.023,-0.02711 -0.0542,-0.05953 -0.0933,-0.09477 -0.0393,-0.03524 -0.0959,-0.08108 -0.17035,-0.13656 l -0.21376,-0.170468 c -0.20557,-0.160784 -0.36246,-0.287916 -0.47045,-0.379868 -0.10837,-0.09188 -0.19904,-0.186591 -0.27199,-0.282791 -0.0744,-0.09738 -0.12979,-0.198645 -0.16909,-0.305591 -0.0378,-0.106758 -0.0567,-0.216389 -0.0567,-0.327269 0,-0.191901 0.0583,-0.37593 0.17583,-0.550339 0.11757,-0.174418 0.28934,-0.301532 0.51372,-0.382615 0.22472,-0.07989 0.48819,-0.120446 0.79116,-0.120446 0.34619,0 0.74512,0.04054 1.19665,0.121685 l 0.0487,0.827821 c -0.30421,-0.124501 -0.59761,-0.186653 -0.87741,-0.186653 -0.15281,0 -0.28523,0.01488 -0.40034,0.04604 -0.11368,0.02955 -0.19622,0.07559 -0.24614,0.137746 -0.0501,0.06216 -0.0744,0.132627 -0.0744,0.209641 0,0.04466 0.009,0.08926 0.023,0.132681 0.0159,0.04317 0.0432,0.08901 0.0837,0.136311 0.0394,0.04873 0.0838,0.09351 0.13528,0.135302 0.0513,0.04198 0.15813,0.125687 0.32052,0.250185 0.1622,0.1245 0.30441,0.236752 0.42585,0.336824 0.12182,0.100014 0.2233,0.201335 0.30158,0.302782 0.0784,0.101445 0.13936,0.211078 0.18128,0.327205 0.042,0.116373 0.0622,0.232691 0.0622,0.351695 0,0.198832 -0.0607,0.382675 -0.1811,0.551775 -0.12182,0.16891 -0.3042,0.300095 -0.54896,0.396109 -0.2463,0.0947 -0.51935,0.141994 -0.82232,0.141994 -0.1583,0 -0.35027,-0.01204 -0.57601,-0.03773 -0.22721,-0.02442 -0.46944,-0.06902 -0.72744,-0.132434 z m -5.1213,0.07277 c 0.0622,-0.600252 0.11351,-1.273655 0.15548,-2.021642 0.042,-0.749175 0.065,-1.418517 0.0703,-2.010834 0.24343,0.0056 0.43683,0.0082 0.58288,0.0082 0.17176,0 0.35294,-0.0025 0.54629,-0.0082 l -0.0418,0.678897 c 0.0811,-0.116373 0.15405,-0.208267 0.215,-0.277294 0.0622,-0.0689 0.14201,-0.135125 0.23795,-0.201332 0.0959,-0.06621 0.1989,-0.119189 0.30827,-0.158287 0.1096,-0.0406 0.23132,-0.07172 0.36782,-0.096 0.13528,-0.02298 0.27728,-0.03524 0.42464,-0.03524 0.23551,0 0.45982,0.02973 0.67479,0.08926 0.21376,0.05946 0.38817,0.154232 0.51922,0.282791 0.1328,0.129813 0.21919,0.270359 0.26099,0.424403 0.042,0.153046 0.0636,0.315027 0.0636,0.487 0,0.07009 -0.004,0.183779 -0.0124,0.339261 l -0.0837,1.731043 c -0.0107,0.240686 -0.0177,0.49618 -0.0202,0.767978 -0.20839,-0.0049 -0.38548,-0.008 -0.53284,-0.008 -0.20007,0 -0.40154,0.0025 -0.60449,0.008 0.0201,-0.22982 0.046,-0.629987 0.0756,-1.20213 0.0312,-0.570702 0.046,-0.949319 0.046,-1.134538 0,-0.208202 -0.0324,-0.375929 -0.0986,-0.503052 -0.0662,-0.12712 -0.1677,-0.224507 -0.30548,-0.290787 -0.13953,-0.06621 -0.28829,-0.09857 -0.44927,-0.09857 -0.15812,0 -0.30547,0.02973 -0.44339,0.09045 -0.1367,0.06091 -0.25569,0.150176 -0.35576,0.266487 -0.10554,0.118993 -0.18658,0.264925 -0.24467,0.439336 -0.0609,0.185403 -0.10555,0.490996 -0.13529,0.916899 -0.0283,0.377494 -0.0501,0.881794 -0.0676,1.515905 -0.20279,-0.0049 -0.38538,-0.008 -0.54898,-0.008 -0.16646,0 -0.36793,0.0025 -0.6045,0.008 z m -2.27189,0 c 0.0662,-0.90853 0.11899,-1.841736 0.16097,-2.79649 0.0406,-0.956069 0.0607,-1.686316 0.0607,-2.190617 l -0.004,-0.424593 0.66115,0.008 c 0.0366,0 0.23925,-0.0025 0.60594,-0.008 -0.11103,1.39003 -0.18004,3.194035 -0.20965,5.4117 l -0.58431,-0.008 c -0.0972,0 -0.32847,0.0025 -0.69097,0.008 z m -7.33612,0 c 0.0623,-0.600252 0.1135,-1.273655 0.15547,-2.021642 0.042,-0.749175 0.065,-1.418517 0.0705,-2.010834 0.24329,0.0056 0.43664,0.0082 0.58256,0.0082 0.17176,0 0.35287,-0.0025 0.54639,-0.0082 l -0.042,0.678897 c 0.0811,-0.116373 0.15423,-0.208267 0.21515,-0.277294 0.0621,-0.0689 0.14184,-0.135125 0.238,-0.201332 0.0959,-0.06621 0.19865,-0.119189 0.30827,-0.158287 0.10943,-0.0406 0.23125,-0.07172 0.36775,-0.096 0.1351,-0.02298 0.27728,-0.03524 0.42465,-0.03524 0.23531,0 0.45982,0.02973 0.67476,0.08926 0.2136,0.05946 0.38819,0.154232 0.51944,0.282791 0.13245,0.129813 0.21901,0.270359 0.26079,0.424403 0.042,0.153046 0.0637,0.315027 0.0637,0.487 0,0.07009 -0.004,0.183779 -0.0124,0.339261 l -0.0837,1.731043 c -0.0107,0.240686 -0.0177,0.49618 -0.0203,0.767978 -0.208,-0.0049 -0.3853,-0.008 -0.5326,-0.008 -0.20027,0 -0.40177,0.0025 -0.60457,0.008 0.0202,-0.22982 0.0459,-0.629987 0.0758,-1.20213 0.031,-0.570702 0.0459,-0.949319 0.0459,-1.134538 0,-0.208202 -0.0326,-0.375929 -0.0988,-0.503052 -0.0662,-0.12712 -0.1675,-0.224507 -0.30546,-0.290787 -0.13937,-0.06621 -0.2881,-0.09857 -0.44888,-0.09857 -0.1585,0 -0.30579,0.02973 -0.44372,0.09045 -0.13635,0.06091 -0.25556,0.150176 -0.35556,0.266487 -0.10536,0.118993 -0.18666,0.264925 -0.24494,0.439336 -0.0607,0.185403 -0.10536,0.490996 -0.1351,0.916899 -0.0285,0.377494 -0.0499,0.881794 -0.0676,1.515905 -0.20297,-0.0049 -0.38549,-0.008 -0.54916,-0.008 -0.16627,0 -0.36775,0.0025 -0.60431,0.008 z m -4.26641,-3.156181 c 0.0377,-0.18784 0.0621,-0.319085 0.0717,-0.394859 0.009,-0.07576 0.0257,-0.189275 0.0499,-0.343509 0.35964,-0.08378 0.6761,-0.141995 0.95195,-0.175656 0.27467,-0.03398 0.53953,-0.05153 0.79667,-0.05153 0.29058,0 0.55833,0.03385 0.80038,0.101321 0.2435,0.0664 0.43414,0.174595 0.57215,0.321898 0.13652,0.148741 0.20538,0.361062 0.20538,0.638545 0,0.14998 -0.0201,0.532598 -0.0622,1.149342 -0.0418,0.616619 -0.0662,1.253539 -0.0742,1.910637 -0.20164,-0.0049 -0.38567,-0.008 -0.5544,-0.008 -0.16114,0 -0.35025,0.0025 -0.56684,0.008 0.0352,-0.319086 0.0636,-0.68827 0.0837,-1.107615 l 0.0529,-0.985741 c -0.10146,0.06622 -0.17726,0.112248 -0.23143,0.139356 -0.0525,0.02568 -0.11208,0.0501 -0.17853,0.07296 -0.0662,0.02174 -0.18378,0.05684 -0.35026,0.102879 -0.16752,0.04604 -0.30152,0.08639 -0.40279,0.120375 -0.10006,0.03504 -0.19216,0.0744 -0.27324,0.117559 -0.0797,0.04322 -0.14873,0.09195 -0.20419,0.146121 -0.0555,0.05404 -0.0961,0.110884 -0.12182,0.170346 -0.0257,0.05948 -0.0378,0.124306 -0.0378,0.193338 0,0.110883 0.0326,0.206831 0.0974,0.286726 0.065,0.08108 0.14732,0.136684 0.24474,0.169105 0.0988,0.03116 0.21496,0.04728 0.34739,0.04728 0.0854,0 0.1746,-0.0067 0.26917,-0.02036 0.0933,-0.01346 0.22046,-0.0473 0.38001,-0.101322 -0.0555,0.149982 -0.12043,0.374493 -0.1946,0.673403 -0.18802,0.03242 -0.33675,0.05278 -0.44908,0.06091 -0.11066,0.0082 -0.21351,0.01204 -0.30966,0.01204 -0.33255,0 -0.60704,-0.0446 -0.82075,-0.135124 -0.21495,-0.08921 -0.37311,-0.231381 -0.47476,-0.427404 -0.10146,-0.194837 -0.15281,-0.392048 -0.15281,-0.589509 0,-0.113698 0.0203,-0.225945 0.0597,-0.336639 0.0392,-0.111006 0.0974,-0.21245 0.17441,-0.304341 0.0769,-0.09334 0.17584,-0.182593 0.29734,-0.267923 0.12182,-0.08501 0.29767,-0.168911 0.52873,-0.248622 0.22999,-0.08108 0.53422,-0.162358 0.91284,-0.244747 0.10025,-0.02036 0.20414,-0.04604 0.31376,-0.07715 0.10821,-0.02981 0.19479,-0.05953 0.25975,-0.08802 0.0648,-0.0296 0.12042,-0.06746 0.16893,-0.113505 0.0473,-0.04585 0.0825,-0.09458 0.1043,-0.144864 0.0229,-0.04979 0.0338,-0.101269 0.0338,-0.153859 0,-0.105572 -0.0338,-0.194774 -0.10164,-0.267924 -0.0674,-0.07295 -0.15405,-0.124305 -0.26225,-0.152796 -0.10677,-0.02855 -0.22593,-0.04179 -0.35574,-0.04179 -0.48268,0 -1.01547,0.113504 -1.59823,0.340634 z m -7.541803,3.156181 c 0.03648,-0.448894 0.07561,-1.120858 0.117577,-2.014708 0.04055,-0.892663 0.06074,-1.566065 0.06074,-2.017768 0.224512,0.0056 0.405854,0.0082 0.545033,0.0082 0.160961,0 0.33676,-0.0025 0.526104,-0.0082 l -0.0271,0.643666 c 0.08393,-0.124306 0.160961,-0.225758 0.231259,-0.302843 0.06906,-0.07839 0.15972,-0.150105 0.270427,-0.216326 0.109609,-0.0664 0.239564,-0.117631 0.38811,-0.156924 0.148742,-0.03774 0.302956,-0.05684 0.45988,-0.05684 0.118998,0 0.23388,0.0108 0.343503,0.03386 0.11085,0.02155 0.21216,0.05416 0.30297,0.0947 0.0905,0.04055 0.16752,0.08782 0.23253,0.140614 0.0648,0.05278 0.11898,0.112248 0.1636,0.175852 0.0446,0.06496 0.0933,0.16073 0.14592,0.287914 0.0585,-0.09314 0.11227,-0.170346 0.16096,-0.232506 0.0487,-0.06091 0.11491,-0.125739 0.19621,-0.19215 0.0823,-0.06477 0.17301,-0.120197 0.27448,-0.166095 0.10005,-0.04478 0.21233,-0.07984 0.33802,-0.104261 0.12591,-0.02568 0.25574,-0.03791 0.39081,-0.03791 0.23005,0 0.44782,0.03791 0.6504,0.112247 0.20433,0.07583 0.36387,0.194774 0.48024,0.357002 0.11634,0.162359 0.17443,0.363687 0.17443,0.603126 0,0.127121 -0.009,0.313776 -0.0271,0.558461 -0.0189,0.246311 -0.0406,0.646541 -0.0662,1.20219 -0.0257,0.555838 -0.0406,0.984491 -0.0432,1.288709 -0.19352,-0.0049 -0.36387,-0.008 -0.51261,-0.008 -0.17566,0 -0.37999,0.0025 -0.61655,0.008 0.0243,-0.340887 0.0473,-0.696265 0.069,-1.069509 l 0.0499,-0.906094 c 0.0142,-0.230007 0.0202,-0.423219 0.0202,-0.582949 0,-0.187841 -0.0296,-0.32989 -0.0893,-0.427091 -0.0595,-0.09613 -0.13512,-0.165031 -0.22721,-0.205768 -0.0907,-0.04191 -0.19315,-0.06216 -0.30683,-0.06216 -0.11899,0 -0.2272,0.02286 -0.32457,0.06766 -0.0959,0.04466 -0.18666,0.117559 -0.27043,0.219074 -0.0826,0.100013 -0.14751,0.217764 -0.19209,0.351631 -0.0445,0.133673 -0.0784,0.320521 -0.10006,0.562398 -0.0203,0.240811 -0.0378,0.558647 -0.0513,0.95213 l -0.0285,1.100682 c -0.21907,-0.0049 -0.40142,-0.008 -0.54629,-0.008 -0.14608,0 -0.339427,0.0025 -0.58294,0.008 0.01913,-0.202707 0.046,-0.619367 0.08123,-1.246793 0.03503,-0.627363 0.05274,-1.051956 0.05274,-1.271156 0,-0.114938 -0.0091,-0.213576 -0.02849,-0.294659 -0.01892,-0.07989 -0.05526,-0.156923 -0.113502,-0.228632 -0.05687,-0.07296 -0.123067,-0.127122 -0.200148,-0.160978 -0.07578,-0.0338 -0.16521,-0.05136 -0.265044,-0.05136 -0.185413,0 -0.349012,0.06097 -0.488191,0.182593 -0.140598,0.120375 -0.243495,0.282605 -0.308464,0.485562 -0.06481,0.202896 -0.110671,0.598816 -0.13918,1.185824 -0.02833,0.58701 -0.04196,1.05358 -0.04196,1.399589 -0.242077,-0.0049 -0.424606,-0.008 -0.548912,-0.008 -0.139179,0 -0.332773,0.0025 -0.580146,0.008 z m -4.307141,-3.156181 c 0.03789,-0.18784 0.06215,-0.319085 0.07172,-0.394859 0.0089,-0.07576 0.02568,-0.189275 0.04994,-0.343509 0.359812,-0.08378 0.676227,-0.141995 0.952142,-0.175656 0.274411,-0.03398 0.53935,-0.05153 0.796459,-0.05153 0.290721,0 0.558456,0.03385 0.800517,0.101321 0.243316,0.0664 0.434219,0.174595 0.572142,0.321898 0.136347,0.148741 0.205406,0.361062 0.205406,0.638545 0,0.14998 -0.02036,0.532598 -0.06216,1.149342 -0.04196,0.616619 -0.0664,1.253539 -0.07437,1.910637 -0.20151,-0.0049 -0.38549,-0.008 -0.5544,-0.008 -0.160961,0 -0.350253,0.0025 -0.566831,0.008 0.03541,-0.319086 0.06374,-0.68827 0.08411,-1.107615 l 0.05259,-0.985741 c -0.101286,0.06622 -0.177074,0.112248 -0.231258,0.139356 -0.05259,0.02568 -0.112265,0.0501 -0.178472,0.07296 -0.06622,0.02174 -0.183963,0.05684 -0.350253,0.102879 -0.167688,0.04604 -0.301521,0.08639 -0.403038,0.120375 -0.100044,0.03504 -0.191894,0.0744 -0.273047,0.117559 -0.07986,0.04322 -0.14892,0.09195 -0.204149,0.146121 -0.05542,0.05404 -0.09615,0.110884 -0.121827,0.170346 -0.0255,0.05948 -0.0379,0.124306 -0.0379,0.193338 0,0.110883 0.03258,0.206831 0.09739,0.286726 0.06498,0.08108 0.147502,0.136684 0.244733,0.169105 0.0988,0.03116 0.215144,0.04728 0.347578,0.04728 0.08517,0 0.174417,-0.0067 0.26917,-0.02036 0.09332,-0.01346 0.220457,-0.0473 0.379805,-0.101322 -0.05524,0.149982 -0.120232,0.374493 -0.194391,0.673403 -0.188106,0.03242 -0.337025,0.05278 -0.449095,0.06091 -0.110847,0.0082 -0.213763,0.01204 -0.309701,0.01204 -0.332704,0 -0.607186,-0.0446 -0.820773,-0.135124 -0.215126,-0.08921 -0.373235,-0.231381 -0.474682,-0.427404 -0.101462,-0.194837 -0.152814,-0.392048 -0.152814,-0.589509 0,-0.113698 0.02018,-0.225945 0.0595,-0.336639 0.03931,-0.111006 0.09738,-0.21245 0.174418,-0.304341 0.0772,-0.09334 0.175833,-0.182593 0.297465,-0.267923 0.121827,-0.08501 0.297662,-0.168911 0.528795,-0.248622 0.229808,-0.08108 0.534215,-0.162358 0.912763,-0.244747 0.100045,-0.02036 0.204148,-0.04604 0.313775,-0.07715 0.108191,-0.02981 0.19478,-0.05953 0.25982,-0.08802 0.06481,-0.0296 0.120234,-0.06746 0.168928,-0.113505 0.04728,-0.04585 0.08234,-0.09458 0.10412,-0.144864 0.02302,-0.04979 0.03382,-0.101269 0.03382,-0.153859 0,-0.105572 -0.03382,-0.194774 -0.10164,-0.267924 -0.06746,-0.07295 -0.153877,-0.124305 -0.262229,-0.152796 -0.106775,-0.02855 -0.22577,-0.04179 -0.355565,-0.04179 -0.48288,0 -1.015552,0.113504 -1.598497,0.340634"
         style="fill:#14317a;fill-opacity:1;fill-rule:evenodd;stroke:none;stroke-width:0.624677" /></g></g></svg>
